<?xml version="1.0" standalone="no"?><!DOCTYPE svg PUBLIC "-//W3C//DTD SVG 1.1//EN" "http://www.w3.org/Graphics/SVG/1.1/DTD/svg11.dtd"><svg t="1752653213180" class="icon" viewBox="0 0 1024 1024" version="1.1" xmlns="http://www.w3.org/2000/svg" p-id="1023" xmlns:xlink="http://www.w3.org/1999/xlink" width="200" height="200"><path d="M701.44 752.64l248.30464-422.4-496.6144 0L701.44 752.64z" fill="#D8DEE9" p-id="1024"></path><path d="M322.56 752.64l248.30464-422.4-496.6144 0L322.56 752.64z" fill="#4C566A" p-id="1025"></path><path d="M304.80896 773.10464a30.72 30.72 0 0 1-11.24352-41.96352l240.81408-417.1008a30.72 30.72 0 1 1 53.20704 30.72l-240.81408 417.1008a30.72 30.72 0 0 1-41.96352 11.24352z" fill="#81A1C1" p-id="1026"></path><path d="M60.43648 302.81216a30.72 30.72 0 0 0-11.24352 41.96351999l240.80896 417.10080001a30.72 30.72 0 0 0 53.20704-30.72L102.40000001 314.05568a30.72 30.72 0 0 0-41.96352001-11.24352z" fill="#81A1C1" p-id="1027"></path><path d="M738.85696 747.52a30.72 30.72 0 0 1-30.72 30.72L322.56 778.24a30.72 30.72 0 1 1 0-61.44L708.13696 716.8a30.72 30.72 0 0 1 30.72 30.72zM976.896 330.752a30.72 30.72 0 0 1-30.72 30.72l-380.14976 0a30.72 30.72 0 1 1 0-61.44L946.176 300.032a30.72 30.72 0 0 1 30.72 30.72z" fill="#81A1C1" p-id="1028"></path><path d="M695.5008 773.10464a30.72 30.72 0 0 1-11.24352-41.96352l240.81408-417.1008a30.72 30.72 0 1 1 53.20704 30.72l-240.80896 417.1008a30.72 30.72 0 0 1-41.96352 11.24352zM71.68 348.16a30.72 30.72 0 0 1-30.72-30.72l0-51.19999999a30.72 30.72 0 1 1 61.44-1e-8l0 51.2a30.72 30.72 0 0 1-30.72 30.72z" fill="#81A1C1" p-id="1029"></path><path d="M952.32 348.16a30.72 30.72 0 0 1-30.72-30.72l0-51.2a30.72 30.72 0 1 1 61.44 1e-8l0 51.19999999a30.72 30.72 0 0 1-30.72 30.72zM558.08 348.16a30.72 30.72 0 0 1-30.72-30.72l-1e-8-51.2a30.72 30.72 0 1 1 61.44000001 0l0 51.2a30.72 30.72 0 0 1-30.72 30.72z" fill="#81A1C1" p-id="1030"></path><path d="M701.44 629.76a20.48 20.48 0 0 1-20.48 20.48l-184.32 0a20.48 20.48 0 0 1 0-40.96000001L680.96 609.27999999a20.48 20.48 0 0 1 20.48 20.48000001zM757.76 537.6a20.48 20.48 0 0 1-20.48 20.48l-184.32 0a20.48 20.48 0 0 1 0-40.96L737.28000001 517.12a20.48 20.48 0 0 1 20.47999999 20.48zM808.96000001 445.44a20.48 20.48 0 0 1-20.48000001 20.48l-184.32 0a20.48 20.48 0 0 1 0-40.96L788.48 424.96a20.48 20.48 0 0 1 20.48000001 20.48z" fill="#4C566A" p-id="1031"></path></svg>